<svg width="48" height="48" viewBox="0 0 48 48" fill="none" xmlns="http://www.w3.org/2000/svg">
<path d="M4.51133 23.2094C4.85161 22.1886 5.80696 21.5 6.88304 21.5H41.117C42.193 21.5 43.1484 22.1886 43.4887 23.2094L44.822 27.2094C45.3616 28.8283 44.1567 30.5 42.4503 30.5H5.54971C3.84331 30.5 2.63839 28.8283 3.178 27.2094L4.51133 23.2094Z" stroke="#152C5B" stroke-width="3"/>
<mask id="path-2-inside-1" fill="white">
<path d="M9 47C6.79086 47 5 45.2091 5 43L5 30C5 29.4477 5.44771 29 6 29L12 29C12.5523 29 13 29.4477 13 30L13 43C13 45.2091 11.2091 47 9 47Z"/>
</mask>
<path d="M9 47C6.79086 47 5 45.2091 5 43L5 30C5 29.4477 5.44771 29 6 29L12 29C12.5523 29 13 29.4477 13 30L13 43C13 45.2091 11.2091 47 9 47Z" stroke="#152C5B" stroke-width="6" mask="url(#path-2-inside-1)"/>
<path d="M15 15L15 20" stroke="#152C5B" stroke-width="3" stroke-linecap="round"/>
<path d="M33 15L33 20" stroke="#152C5B" stroke-width="3" stroke-linecap="round"/>
<mask id="path-5-inside-2" fill="white">
<path d="M15 16C12.7909 16 11 14.2091 11 12L11 7C11 6.44772 11.4477 6 12 6L18 6C18.5523 6 19 6.44771 19 7L19 12C19 14.2091 17.2091 16 15 16Z"/>
</mask>
<path d="M15 16C12.7909 16 11 14.2091 11 12L11 7C11 6.44772 11.4477 6 12 6L18 6C18.5523 6 19 6.44771 19 7L19 12C19 14.2091 17.2091 16 15 16Z" stroke="#FF498B" stroke-width="6" mask="url(#path-5-inside-2)"/>
<mask id="path-6-inside-3" fill="white">
<path d="M33 16C30.7909 16 29 14.2091 29 12L29 7C29 6.44772 29.4477 6 30 6L36 6C36.5523 6 37 6.44771 37 7L37 12C37 14.2091 35.2091 16 33 16Z"/>
</mask>
<path d="M33 16C30.7909 16 29 14.2091 29 12L29 7C29 6.44772 29.4477 6 30 6L36 6C36.5523 6 37 6.44771 37 7L37 12C37 14.2091 35.2091 16 33 16Z" stroke="#FF498B" stroke-width="6" mask="url(#path-6-inside-3)"/>
<mask id="path-7-inside-4" fill="white">
<path d="M39 47C36.7909 47 35 45.2091 35 43L35 30C35 29.4477 35.4477 29 36 29L42 29C42.5523 29 43 29.4477 43 30L43 43C43 45.2091 41.2091 47 39 47Z"/>
</mask>
<path d="M39 47C36.7909 47 35 45.2091 35 43L35 30C35 29.4477 35.4477 29 36 29L42 29C42.5523 29 43 29.4477 43 30L43 43C43 45.2091 41.2091 47 39 47Z" stroke="#152C5B" stroke-width="6" mask="url(#path-7-inside-4)"/>
</svg>
