<svg width="48" height="48" viewBox="0 0 48 48" fill="none" xmlns="http://www.w3.org/2000/svg">
<path d="M41 22L41 7.76299C41 7.09835 40.6698 6.47713 40.1189 6.10529L38.1189 4.75529C37.4428 4.29888 36.5572 4.29888 35.8811 4.75529L33 6.7" stroke="#FF498B" stroke-width="3" stroke-linecap="round"/>
<path d="M1.5 25C1.5 23.6193 2.61929 22.5 4 22.5H44C45.3807 22.5 46.5 23.6193 46.5 25V26C46.5 27.3807 45.3807 28.5 44 28.5H4C2.61929 28.5 1.5 27.3807 1.5 26V25Z" stroke="#152C5B" stroke-width="3"/>
<path d="M4.5 28.5H43.5V36C43.5 37.933 41.933 39.5 40 39.5H8C6.067 39.5 4.5 37.933 4.5 36V28.5Z" stroke="#152C5B" stroke-width="3"/>
<path d="M9 40L9 44" stroke="#152C5B" stroke-width="3" stroke-linecap="round"/>
<path d="M39 40L39 44" stroke="#152C5B" stroke-width="3" stroke-linecap="round"/>
</svg>
