<svg width="48" height="48" viewBox="0 0 48 48" fill="none" xmlns="http://www.w3.org/2000/svg">
<path d="M30.5 40C30.5 41.3349 29.3789 42.9472 26.6429 44.3152C23.9966 45.6383 20.2359 46.5 16 46.5C11.7641 46.5 8.00336 45.6383 5.35711 44.3152C2.62114 42.9472 1.5 41.3349 1.5 40C1.5 38.6651 2.62114 37.0528 5.35711 35.6848C8.00336 34.3617 11.7641 33.5 16 33.5C20.2359 33.5 23.9966 34.3617 26.6429 35.6848C29.3789 37.0528 30.5 38.6651 30.5 40Z" stroke="#152C5B" stroke-width="3"/>
<path d="M28.5 14.0488C28.5 17.6459 27.012 23.788 24.5418 29.0462C23.3127 31.6626 21.8843 33.9635 20.3571 35.5864C18.812 37.2283 17.3388 38 16 38C14.6612 38 13.188 37.2283 11.6429 35.5864C10.1157 33.9635 8.68731 31.6626 7.45815 29.0462C4.98796 23.788 3.5 17.6459 3.5 14.0488C3.5 7.11336 9.10136 1.5 16 1.5C22.8986 1.5 28.5 7.11336 28.5 14.0488Z" fill="white" stroke="#152C5B" stroke-width="3"/>
<circle cx="16" cy="14" r="4.5" stroke="#FF498B" stroke-width="3"/>
</svg>
