<svg width="48" height="48" viewBox="0 0 48 48" fill="none" xmlns="http://www.w3.org/2000/svg">
<mask id="path-1-inside-1" fill="white">
<path fill-rule="evenodd" clip-rule="evenodd" d="M18.7932 6C18.0061 6 17.2923 6.46157 16.9693 7.17927L15.25 11H8C3.58172 11 0 14.5817 0 19V33C0 37.4183 3.58172 41 8 41H40C44.4183 41 48 37.4183 48 33V19C48 14.5817 44.4183 11 40 11H32.5L30.5528 7.10557C30.214 6.428 29.5215 6 28.7639 6H18.7932Z"/>
</mask>
<path d="M16.9693 7.17927L14.2336 5.94818V5.94818L16.9693 7.17927ZM15.25 11V14H17.1898L17.9858 12.2311L15.25 11ZM32.5 11L29.8167 12.3416L30.6459 14H32.5V11ZM30.5528 7.10557L27.8695 8.44721L27.8695 8.44721L30.5528 7.10557ZM19.7051 8.41036C19.5436 8.76921 19.1867 9 18.7932 9V3C16.8256 3 15.041 4.15392 14.2336 5.94818L19.7051 8.41036ZM17.9858 12.2311L19.7051 8.41036L14.2336 5.94818L12.5142 9.76891L17.9858 12.2311ZM8 14H15.25V8H8V14ZM3 19C3 16.2386 5.23858 14 8 14V8C1.92487 8 -3 12.9249 -3 19H3ZM3 33V19H-3V33H3ZM8 38C5.23858 38 3 35.7614 3 33H-3C-3 39.0751 1.92487 44 8 44V38ZM40 38H8V44H40V38ZM45 33C45 35.7614 42.7614 38 40 38V44C46.0751 44 51 39.0751 51 33H45ZM45 19V33H51V19H45ZM40 14C42.7614 14 45 16.2386 45 19H51C51 12.9249 46.0751 8 40 8V14ZM32.5 14H40V8H32.5V14ZM27.8695 8.44721L29.8167 12.3416L35.1833 9.65836L33.2361 5.76393L27.8695 8.44721ZM28.7639 9C28.3852 9 28.0389 8.786 27.8695 8.44721L33.2361 5.76393C32.3891 4.07001 30.6578 3 28.7639 3V9ZM18.7932 9H28.7639V3H18.7932V9Z" fill="#152C5B" mask="url(#path-1-inside-1)"/>
<circle cx="24" cy="26" r="6.5" stroke="#FF498B" stroke-width="3"/>
<path d="M40 18H34" stroke="#152C5B" stroke-width="3" stroke-linecap="round"/>
</svg>
